/* XPM */
static char *c8db870b70c04a79bdb38a44b2e3355dWB4hXACvzAuR4EXU[] = {
/* columns rows colors chars-per-pixel */
"60 60 152 2 ",
"   c #666889",
".  c #6B6E8A",
"X  c #6F7085",
"o  c #6E728D",
"O  c #737585",
"+  c #72748E",
"@  c #79778A",
"#  c #6F7391",
"$  c #737692",
"%  c #757A93",
"&  c #7A7D95",
"*  c #767598",
"=  c #7A7D98",
"-  c #817F93",
";  c #7D8097",
":  c #7E819A",
">  c #838497",
",  c #82859B",
"<  c #85899A",
"1  c #8C8E9D",
"2  c #918C97",
"3  c #8E909C",
"4  c #8588A1",
"5  c #8A8CA3",
"6  c #8E91A3",
"7  c #9293A3",
"8  c #9799A5",
"9  c #9D9DA3",
"0  c #9495A9",
"q  c #9699AB",
"w  c #9B9CAB",
"e  c #9699B5",
"r  c #9C9FB1",
"t  c #9FA2AD",
"y  c #9FA3B3",
"u  c #99A9BF",
"i  c #A2A2A5",
"p  c #A3A4AC",
"a  c #ADAEAD",
"s  c #A3A5B3",
"d  c #A6A8B6",
"f  c #ACACB4",
"g  c #A2A5B9",
"h  c #A8A7BB",
"j  c #A4A9B9",
"k  c #AAADBA",
"l  c #B1AEB3",
"z  c #AEB1BD",
"x  c #B3B3B5",
"c  c #B9B6B7",
"v  c #B4B4BD",
"b  c #B9B7BF",
"n  c #B6B8BE",
"m  c #BABABD",
"M  c #97ABC5",
"N  c #9CAEC5",
"B  c #9BAFCA",
"V  c #ABAEC0",
"C  c #A0AECA",
"Z  c #ADB4C4",
"A  c #A3B2CD",
"S  c #AFB7CC",
"D  c #ADBACC",
"F  c #B2B5C3",
"G  c #B7B9C3",
"H  c #BBBCC4",
"J  c #B3BBCB",
"K  c #BBBECA",
"L  c #AFBCD5",
"P  c #B2BDD2",
"I  c #C3BFC3",
"U  c #C0BFC9",
"Y  c #BFC1C5",
"T  c #B7C2CE",
"R  c #BDC1CB",
"E  c #AFC8DF",
"W  c #B6C1D3",
"Q  c #BDC4D3",
"!  c #B6C6DA",
"~  c #B9C6DA",
"^  c #B4C8DF",
"/  c #BDCCDC",
"(  c #BBD0DB",
")  c #B4C6E2",
"_  c #B9C7E1",
"`  c #B5C9E2",
"'  c #BCCCE3",
"]  c #BFCFE9",
"[  c #BCD0E6",
"{  c #BED1E9",
"}  c #C3C3C4",
"|  c #C9C4C0",
" . c #CBC8C5",
".. c #C4C5CB",
"X. c #C8C7C9",
"o. c #C7C8CD",
"O. c #CCCBCD",
"+. c #C3C6D2",
"@. c #C6C9D3",
"#. c #CCCCD2",
"$. c #C3CCDA",
"%. c #CBCEDB",
"&. c #CFD0D3",
"*. c #CCD2DD",
"=. c #D3D3D4",
"-. c #D8D5D5",
";. c #DBD9D4",
":. c #D4D5DA",
">. c #D8D7DC",
",. c #D6D9DC",
"<. c #DBDBDD",
"1. c #E0DDDE",
"2. c #DEE3DE",
"3. c #E1E0DE",
"4. c #C3CFE2",
"5. c #C4D4E5",
"6. c #CCD4E3",
"7. c #C4D8E6",
"8. c #CED9E2",
"9. c #C2D3E9",
"0. c #CBD6E9",
"q. c #CDDCEB",
"w. c #D3D6E2",
"e. c #D4DAE3",
"r. c #DDDDE2",
"t. c #D3DDEB",
"y. c #D8DEEB",
"u. c #D5DCF1",
"i. c #E0DFE1",
"p. c #CFE0EB",
"a. c #DFE0E4",
"s. c #D4E2EB",
"d. c #DDE3EA",
"f. c #DCE9EE",
"g. c #D9E4F0",
"h. c #DDEAF2",
"j. c #E4E4E5",
"k. c #E9E7E5",
"l. c #E5E6E9",
"z. c #E8E7EC",
"x. c #E5E9EB",
"c. c #ECECEC",
"v. c #F0EFEF",
"b. c #F3F2EE",
"n. c #E4EBF2",
"m. c #EDEEF1",
"M. c #F0EFF0",
"N. c #EFF0F2",
"B. c #F4F4F4",
"V. c #F8F7F5",
"C. c #F5F6F8",
"Z. c #FBFBFB",
/* pixels */
"Z.B.B.Z.c.Z.Z.c.Z.B.B.Z.c.Z.Z.c.Z.B.B.Z.c.Z.Z.c.Z.B.B.Z.c.Z.Z.c.Z.B.B.Z.c.Z.Z.c.Z.B.B.Z.c.Z.Z.c.Z.B.B.Z.c.Z.Z.c.Z.B.B.Z.",
"Z.B.B.Z.B.Z.B.B.Z.B.B.Z.B.Z.Z.B.Z.B.B.B.B.B.B.B.B.Z.B.Z.B.Z.B.B.Z.V.B.Z.B.Z.Z.B.Z.B.B.Z.B.Z.B.B.Z.V.B.Z.B.Z.V.B.Z.V.B.Z.",
"c.Z.Z.c.Z.B.B.Z.c.Z.Z.c.Z.B.c.Z.c.V.Z.c.Z.B.B.Z.c.Z.Z.c.Z.B.B.Z.c.Z.Z.c.Z.B.c.Z.c.Z.Z.c.Z.B.B.Z.z.Z.Z.c.Z.B.B.Z.c.Z.Z.c.",
"Z.B.B.Z.c.Z.Z.B.Z.B.B.Z.B.Z.Z.c.Z.B.B.Z.c.B.Z.c.Z.B.B.Z.B.V.Z.B.Z.B.B.Z.B.Z.Z.c.Z.B.B.Z.c.Z.Z.c.Z.B.B.Z.N.V.Z.B.Z.B.B.Z.",
"Z.B.B.Z.B.Z.V.B.Z.B.B.Z.B.B.B.B.Z.N.B.Z.c.B.B.N.Z.B.B.Z.B.Z.B.B.Z.B.B.Z.B.B.Z.B.Z.B.B.Z.B.Z.Z.B.Z.B.B.Z.B.Z.V.B.Z.B.B.Z.",
"c.Z.Z.c.Z.B.B.Z.c.Z.Z.c.Z.B.B.Z.c.B.B.c.Z.v.B.Z.c.Z.Z.c.Z.B.B.Z.c.Z.Z.c.Z.B.B.Z.c.Z.Z.c.Z.B.B.Z.c.Z.Z.c.Z.B.B.Z.c.Z.Z.c.",
"Z.B.B.Z.B.B.Z.B.Z.B.B.Z.B.V.B.B.B.B.B.V.B.B.B.B.Z.B.B.Z.B.B.Z.B.Z.B.B.Z.B.Z.B.B.Z.B.V.Z.B.Z.B.B.Z.B.B.Z.B.C.V.B.Z.B.B.Z.",
"Z.B.B.Z.c.Z.Z.c.Z.B.B.Z.c.Z.B.c.Z.c.c.Z.c.B.V.c.Z.B.B.Z.c.Z.Z.c.Z.B.B.Z.c.Z.Z.B.Z.B.B.Z.c.Z.Z.c.Z.B.B.Z.c.Z.Z.m.Z.B.B.Z.",
"c.Z.Z.c.Z.B.B.Z.c.Z.Z.c.Z.v.v.Z.x.B.B.k.Z.c.v.Z.k.V.Z.c.Z.B.B.Z.c.Z.Z.c.Z.B.B.Z.c.Z.Z.c.Z.B.B.Z.c.Z.Z.c.Z.B.B.Z.c.Z.Z.c.",
"Z.B.V.B.B.Z.Z.B.Z.B.B.B.B.B.B.B.B.c.B.m.M.v.M.B.B.B.B.B.B.Z.Z.B.Z.B.B.Z.B.B.C.C.Z.B.B.Z.Z.B.Z.B.Z.B.B.V.B.Z.V.B.Z.B.Z.B.",
"Z.N.B.Z.c.Z.Z.c.Z.B.B.Z.c.B.B.c.B.c.c.B.k.B.M.z.V.m.c.Z.c.Z.Z.c.Z.B.B.Z.c.Z.Z.b.Z.B.B.Z.c.Z.Z.c.Z.B.B.Z.c.Z.Z.c.Z.B.B.Z.",
"c.Z.Z.B.Z.B.B.Z.b.B.Z.c.Z.c.c.B.j.c.c.a.m.k.z.C.l.B.B.x.V.v.c.Z.c.Z.Z.c.Z.B.B.Z.c.Z.Z.c.Z.B.B.Z.c.Z.Z.B.Z.B.B.Z.c.Z.Z.c.",
"B.Z.C.B.Z.B.B.Z.B.C.B.N.B.c.c.c.k.c.k.r.z.i.z.z.l.m.m.z.B.m.B.B.B.B.B.B.Z.B.B.Z.B.Z.V.B.Z.B.B.Z.B.Z.Z.B.Z.B.B.Z.B.Z.Z.B.",
"Z.B.B.Z.c.Z.Z.c.Z.B.B.Z.k.B.B.<.m.r.<.l.:.i.i.w.m.r.j.M.r.m.B.k.Z.c.B.Z.c.Z.Z.c.Z.B.B.Z.c.Z.Z.c.Z.B.B.Z.c.Z.Z.c.Z.B.B.Z.",
"b.V.Z.b.Z.B.B.Z.B.C.V.c.C.c.x.c.<.i.r.:.r.=.=.r.=.r.j.r.z.j.l.m.l.B.B.c.Z.B.B.Z.c.Z.Z.B.Z.B.B.Z.B.Z.B.c.Z.B.B.Z.B.Z.Z.c.",
"m.Z.C.B.Z.B.B.Z.c.Z.V.c.B.c.c.c.<.<.>.O.=.#.@.:.@.:.w.:.r.r.a.m.k.B.B.c.Z.c.B.Z.B.V.Z.m.Z.B.B.Z.c.Z.Z.B.Z.B.B.Z.B.B.B.B.",
"Z.B.B.Z.c.Z.Z.c.Z.B.v.Z.k.c.z.j.m.<.=.=.H ....H #.U ..w.o.w.i.>.m.l.z.Z.k.B.C.c.Z.B.B.Z.c.Z.Z.c.Z.B.B.Z.c.Z.Z.c.Z.B.B.Z.",
"B.Z.Z.B.Z.B.B.Z.B.B.B.c.m.l.j.j.z.k.>.:.#.G v F F G K U @.#.%.r.r.l.l.z.B.B.B.C.B.B.Z.B.Z.B.B.Z.B.Z.Z.B.Z.B.B.Z.B.B.Z.B.",
"c.Z.Z.c.Z.B.B.Z.B.Z.C.c.B.k.r.j.>.m.r.O.&...R G s d k k K K ..:.#.r.l.r.m.z.c.C.c.Z.Z.c.Z.B.B.Z.c.Z.Z.c.Z.B.B.Z.B.Z.Z.c.",
"Z.B.B.Z.c.Z.Z.m.Z.B.N.Z.j.c.j.=.,.<.z.l.} m G z K F s h y F K K *.#.:.z.<.c.B.k.Z.v.B.Z.c.Z.Z.c.Z.B.B.Z.c.Z.Z.m.Z.B.B.Z.",
"B.B.V.V.B.V.V.V.B.B.B.B.c.x.j.<.=.#.y.l.l.<.} w w y F G d r h F K ..&.,.r.i.z.m.c.B.B.B.B.B.Z.B.V.B.V.V.B.V.V.V.B.V.C.Z.",
"c.Z.Z.c.Z.B.B.Z.c.Z.Z.c.V.k.<.k.O.o.:.:.n.l.r.K 0 6 5 q F F s h h K @...r.w.r.N.j.B.B.c.Z.B.B.Z.c.Z.Z.m.Z.B.B.Z.c.Z.Z.c.",
"Z.B.B.Z.b.Z.Z.c.Z.B.B.Z.c.z.x.<.c.} } >.e.y.d.w.S 5 5 5 > e U F g h G @.+.>.r.r.m.z.c.Z.B.Z.V.c.Z.B.B.Z.N.Z.Z.v.Z.B.B.Z.",
"Z.C.B.Z.B.B.Z.B.Z.B.B.B.c.c.k.<.2.} n @.,.y.y.y.y.F 6 , , , 5 F $.h h K K #.r.i.l.l.c.Z.B.B.C.B.Z.B.B.Z.B.V.V.B.Z.B.B.Z.",
"c.Z.Z.c.Z.B.B.Z.c.Z.Z.c.Z.c.j.k.O.X.b F :.8.6.y.w.1.x & : ; < , y 4.Z y +.#.r.m.<.m.m.l.Z.B.B.Z.c.Z.Z.c.Z.B.B.Z.c.Z.Z.c.",
"Z.B.B.Z.B.Z.Z.B.Z.B.B.Z.c.c.x.<.>...v v @.w.y.t.y.e.#.q % & ; : : 0 %.G G w.y.w.l.d.z.B.B.B.B.B.Z.B.B.Z.B.Z.Z.B.Z.B.B.Z.",
"Z.B.B.Z.c.Z.V.N.Z.B.B.Z.b.B.z.<.<...v z G $.s.0.t.q.6.Q 3 O & % 4 ; 0 t.K Z +.@.e.>.l.C.l.B.V.c.Z.B.B.Z.c.Z.B.B.Z.B.B.Z.",
"c.Z.Z.c.Z.B.B.Z.c.Z.Z.c.Z.B.c.c.#.#.H p U +.*.q.q.p.q.@.} 9 + % = : : q t.F g U K >.l.r.B.z.c.Z.c.Z.Z.c.Z.B.B.Z.c.Z.Z.c.",
"Z.B.B.Z.B.B.B.B.Z.B.B.Z.B.B.m.j.<.O.H k f ..:.6.t.q.{ { $.8 % o $ = = 6 5 6.v h R #.>.r.j.m.M.B.B.B.B.Z.B.V.V.C.Z.B.B.Z.",
"Z.B.B.Z.B.Z.Z.b.Z.B.B.Z.c.Z.B.k.z.#.H v p ..,.8.f.s.p.p.8.Q Z + # % # 5 @ q %.h G K %.i.,.m.B.z.Z.B.B.Z.v.Z.Z.c.Z.B.B.Z.",
"c.Z.Z.c.Z.B.B.Z.c.Z.Z.c.Z.B.c.C.r.>...k s v #.$.0.q.p.p.5.5.k & . * . : = , w w.d G #.@.k.a.x.Z.c.Z.Z.c.Z.B.B.Z.c.Z.Z.c.",
"B.B.Z.B.Z.C.B.Z.B.Z.B.B.Z.B.B.B.z.<...b p K %.f.n.n.n.n.x.f.3.-.0 * . = * 5 , k w.n K #.<.j.c.B.B.B.Z.B.Z.B.B.Z.B.Z.B.B.",
"Z.B.B.Z.c.Z.Z.c.Z.B.B.Z.c.Z.B.x.V.r...@...:.v F 4.0.9.5.[ ` ( / 5 *   % o , 6 < R y.%.:.@.j.c.j.Z.B.B.Z.c.Z.Z.c.Z.B.B.Z.",
"B.Z.Z.c.Z.B.B.Z.B.Z.V.B.Z.B.v.V.z.c.>...j.G v %.y.n.n.n.h.s.p.y.T h + % o & 5 6 w R l.#.-.<.j.B.z.V.Z.c.Z.B.B.Z.B.Z.Z.c.",
"B.B.Z.B.Z.B.B.Z.B.Z.B.B.Z.M.B.B.l.l.<.K U l K #.e.t.u.t.s.8.q.y.d.,.2 $ $ + , < j s ..G #.>.i.M.c.B.Z.B.Z.B.B.Z.B.Z.Z.v.",
"Z.B.B.Z.c.Z.Z.c.Z.B.B.Z.c.Z.B.j.B.r.=.#.#.b ..h W ' ] { ] ] ] _ ! v > $ o + , & Z w %...Y <.k.i.Z.c.b.Z.c.Z.Z.c.Z.B.B.Z.",
"B.Z.B.B.Z.B.B.Z.B.V.V.B.Z.B.c.B.j.r.:.Y =.x O.,.f.x.n.n.n.n.n.n.h.,.#.r $ o , & d w *.v o.=.a.c.c.B.B.B.Z.B.B.Z.B.B.B.B.",
"c.Z.Z.B.Z.B.B.Z.m.Z.Z.m.Z.B.c.B.i.r.:.H >.n ..O.:.6.t.q.t.q.0.q.q.0.0.g = . & * y 8 %.f ..#.<.v.c.B.Z.c.Z.B.B.Z.v.Z.Z.B.",
"Z.B.B.Z.c.Z.Z.c.Z.B.B.Z.c.Z.B.k.B.>.#.@.@.G X.m K W ` ] ' ` ` ) ) ) P = - $ = o d 1 +.G G =.a.2.Z.c.B.Z.c.Z.Z.c.Z.B.B.Z.",
"B.Z.B.B.Z.B.B.V.B.Z.Z.B.B.B.B.m.k.1.#.} =.n ..v Q $.0.q.q.0.9.0.0.0.' e 5 # = $ y 6 +.f K O.<.c.B.B.B.B.B.Z.B.V.V.V.C.B.",
"c.Z.Z.c.Z.B.B.Z.c.Z.Z.c.Z.N.c.Z.<.j.>.m <.n ..>.l.f.n.h.n.f.d.h.n.n.d.6.+.q 4 + w 3 ..d ..o.<.B.l.V.V.N.Z.B.B.Z.c.Z.Z.c.",
"Z.B.B.Z.N.Z.Z.c.Z.B.B.Z.b.Z.B.k.N.<.#.o.O.b X.U t.8.y.s.s.p.p.p.s.g.s.s.y.n 3 X s < K z x &.<.a.V.c.B.Z.c.Z.Z.N.Z.B.B.Z.",
"Z.B.B.Z.B.Z.V.B.Z.B.B.Z.B.B.B.c.c.<.=...#.c ..z S D W ! ` ^ E ` ] ' ' ! P q 9 O t < G f m #.<.x.N.B.B.V.B.Z.V.B.Z.B.B.Z.",
"c.Z.Z.c.Z.B.B.Z.c.Z.Z.c.Z.B.m.Z.<.a.-.H >.n ..v Z T W ~ / / / / 4.5./ ~ S s i @ w 1 H p ..O.<.B.k.B.Z.c.Z.B.B.Z.c.Z.Z.c.",
"Z.B.B.Z.b.C.Z.B.Z.B.B.Z.B.Z.B.c.v.<.=...O.H #...#.#.%.6.*.*.6.8.u.u.0.6.$.@.Y q k 1 G k G :.a.j.B.v.B.Z.N.Z.V.N.Z.B.B.Z.",
"Z.B.B.Z.B.Z.Z.c.Z.B.B.Z.B.B.B.c.M.1.#.X.O.m ....#.@.$.*.$./ ~ Q $.$.$.Q T Q ..s f 3 G x ..<.l.j.B.B.B.Z.N.V.Z.B.Z.B.B.Z.",
"c.Z.Z.c.Z.B.B.Z.c.Z.Z.c.Z.B.B.Z.i.j.>.H =.c I f s N B N N M M B A A A M M y x i i 7 } f :.:.r.C.j.B.Z.c.Z.B.B.Z.c.Z.Z.c.",
"Z.B.B.Z.B.C.Z.B.Z.V.B.Z.B.B.B.c.c.j.=.X.O.b } l z Z D J D D T T W W J D D Z x x f 8 K G @.r.l.l.N.B.B.V.B.Z.Z.B.Z.B.B.Z.",
"Z.B.B.Z.c.Z.Z.c.Z.B.B.Z.B.Z.V.x.B.j.=.O.O.I | c Y H Y R Y R Y Q Q Q W R G S F f v p } } ..r.x.j.V.N.B.Z.N.Z.Z.c.Z.B.B.Z.",
"c.Z.Z.c.Z.B.B.Z.z.Z.Z.c.Z.B.c.Z.j.k.<.} -. . .=.&.&.=.=.:.:.*.,.e.r.<.>.r.:.=.=.I b o.m >.<.j.V.x.V.Z.c.Z.B.B.Z.m.Z.Z.c.",
"V.Z.B.Z.Z.B.Z.B.V.Z.B.Z.B.B.B.B.c.j.<.O.-.m x x z k Z F Z A D T J J J D Z Z F c l x O.X.:.a.k.N.B.B.B.V.Z.B.V.Z.V.V.V.V.",
"Z.B.B.Z.c.Z.Z.c.Z.B.B.Z.c.Z.Z.k.B.k.,.>.O.} x a v z Z G V Z z Z P J L J Z G K F m n #.=.#.k.c.j.Z.N.B.Z.c.Z.Z.z.Z.B.B.Z.",
"c.Z.Z.N.Z.B.B.Z.c.Z.Z.c.Z.B.B.Z.k.k.3.O.;.I x c x m H G K G G Y H Q +.G Q R R ..m ..>.&.j.a.c.V.c.V.Z.v.Z.B.B.Z.m.Z.Z.c.",
"B.Z.B.B.Z.B.B.Z.B.Z.B.B.Z.B.B.C.c.c.k.3.1. .} X.} X.} I R Y Y o.o.#.%.@.#.#.#.>.O.O.<.1.x.k.c.B.N.V.V.B.Z.B.B.Z.B.V.C.B.",
"Z.B.B.Z.c.Z.Z.c.Z.B.B.Z.c.Z.Z.k.Z.k.3.b.3.3.1.-.3.1.<.1.=.-.2.;.k.2.r.x.>.k.k.<.c.j.k.B.j.v.B.x.Z.B.B.Z.c.Z.Z.c.Z.B.B.Z.",
"b.Z.V.B.Z.B.B.Z.B.B.Z.B.Z.B.B.B.c.B.c.3.3.;.&.-.O.O.O.} O.}  .;.&.=.-.>.<.<.<.i.,.a.k.k.c.c.N.V.N.V.V.B.Z.B.B.Z.B.V.Z.B.",
"c.Z.Z.c.Z.B.B.Z.B.Z.Z.c.Z.B.B.Z.c.c.c.<.k.=. .O.m } m x m x x } n Y } } &.#.&.<.=.3.k.j.B.c.N.Z.N.Z.Z.c.Z.B.B.Z.B.Z.Z.c.",
"Z.B.B.Z.c.Z.Z.c.Z.B.B.Z.c.Z.Z.c.Z.c.k.c.=.<.=.}  .m c m a c m x X.Y } =.X.=.<.&.c.2.j.B.j.V.V.c.Z.B.B.Z.c.Z.Z.c.Z.B.B.Z.",
"B.V.Z.B.Z.B.B.Z.B.B.Z.B.Z.B.B.Z.B.B.v.c.c.j.2.<.=.-.&.O.=.&.&.-.=.,.<.<.j.j.j.c.k.c.v.v.B.B.B.V.C.V.V.B.Z.B.B.Z.B.V.V.B.",
"c.Z.Z.z.Z.B.B.Z.c.Z.Z.c.Z.B.B.Z.c.Z.Z.c.Z.B.B.Z.b.Z.Z.b.Z.B.B.Z.v.Z.Z.v.Z.B.B.Z.c.Z.Z.v.Z.B.B.Z.c.Z.Z.c.Z.B.B.Z.c.Z.Z.c."
};
