/* XPM */
static char *_b0fbf93ff1b460ded7210382bb674d8ehtqTD1vHTvfp0Lg[] = {
/* columns rows colors chars-per-pixel */
"60 60 193 2 ",
"   c None",
".  c #0E0E0E",
"X  c #040B0D",
"o  c #0B1316",
"O  c #0E1619",
"+  c #0F191B",
"@  c #141413",
"#  c #171816",
"$  c #181917",
"%  c #111B1D",
"&  c #1C1C1A",
"*  c #060E10",
"=  c #211F1D",
"-  c #1E201D",
";  c #20221F",
":  c #131E21",
">  c #152125",
",  c #192326",
"<  c #172529",
"1  c #19262A",
"2  c #1B2A2D",
"3  c #1D2E32",
"4  c #1F3134",
"5  c #1F3339",
"6  c #232522",
"7  c #272926",
"8  c #2B2D29",
"9  c #282A28",
"0  c #312E2B",
"q  c #2F322E",
"w  c #33322F",
"e  c #203236",
"r  c #2C3434",
"t  c #22363A",
"y  c #24393E",
"u  c #2C3639",
"i  c #333632",
"p  c #353935",
"a  c #363A3A",
"s  c #3A3D39",
"d  c #242E32",
"f  c #403C37",
"g  c #3E423D",
"h  c #44423E",
"j  c #273C41",
"k  c #283E43",
"l  c #343E42",
"z  c #294146",
"x  c #2B454B",
"c  c #2E484E",
"v  c #3D454B",
"b  c #3B4347",
"n  c #2F4B52",
"m  c #2B4750",
"M  c #314D55",
"N  c #34535C",
"B  c #325057",
"V  c #395B64",
"C  c #3A5C66",
"Z  c #3E626C",
"A  c #424542",
"S  c #454B45",
"D  c #4C4E4A",
"F  c #464B4B",
"G  c #4C534D",
"H  c #56524D",
"J  c #444D52",
"K  c #4C555A",
"L  c #4A5255",
"P  c #545855",
"I  c #645E58",
"U  c #5D675F",
"Y  c #68625C",
"T  c #545E63",
"R  c #41616A",
"E  c #5A6166",
"W  c #5D656A",
"Q  c #586569",
"!  c #436974",
"~  c #466E7A",
"^  c #456973",
"/  c #47717D",
"(  c #49727E",
")  c #566F78",
"_  c #63696C",
"`  c #6A6B66",
"'  c #736D67",
"]  c #7D746C",
"[  c #787069",
"{  c #646C71",
"}  c #686F74",
"|  c #6C7375",
" . c #6A7478",
".. c #71797D",
"X. c #767777",
"o. c #677169",
"O. c #81766D",
"+. c #847B73",
"@. c #8A7E74",
"#. c #7A867D",
"$. c #8D8176",
"%. c #8D8279",
"&. c #85817A",
"*. c #90847B",
"=. c #94897F",
"-. c #4C7682",
";. c #4E7985",
":. c #537D8A",
">. c #537984",
",. c #787E82",
"<. c #697B81",
"1. c #59818E",
"2. c #5C8693",
"3. c #67828A",
"4. c #7C8385",
"5. c #7A878A",
"6. c #628C9A",
"7. c #638995",
"8. c #848B8E",
"9. c #898988",
"0. c #998D83",
"q. c #968D84",
"w. c #9D9186",
"e. c #9B938B",
"r. c #959089",
"t. c #858D91",
"y. c #898E91",
"u. c #8C9395",
"i. c #8D9599",
"p. c #91969A",
"a. c #93999C",
"s. c #969794",
"d. c #839086",
"f. c #A2958A",
"g. c #A5998E",
"h. c #A39C93",
"j. c #ABA39A",
"k. c #A7A199",
"l. c #B1A79D",
"z. c #969DA0",
"x. c #989EA1",
"c. c #9CA2A5",
"v. c #9EA5A8",
"b. c #97A3A4",
"n. c #A0A6A9",
"m. c #A4ACAD",
"M. c #A8AAA8",
"N. c #B4ACA3",
"B. c #BAAEA3",
"V. c #B9B1A7",
"C. c #BCB4AA",
"Z. c #B6B2AB",
"A. c #A8AFB1",
"S. c #ABB2B4",
"D. c #AEB8BA",
"F. c #B4BCBD",
"G. c #B4B9B8",
"H. c #ACB1AF",
"J. c #C1B8AE",
"K. c #C3BCB3",
"L. c #C6BFB7",
"P. c #BFC0BB",
"I. c #CBC4BB",
"U. c #C5C2BA",
"Y. c #D1C9BF",
"T. c #B6BFC1",
"R. c #BBC3C4",
"E. c #BEC7C9",
"W. c #C4CCCC",
"Q. c #C4C9C7",
"!. c #D3CBC2",
"~. c #C9D0CF",
"^. c #DBD4CA",
"/. c #DBD3C9",
"(. c #C6CFD0",
"). c #CCD3D4",
"_. c #CFD7D9",
"`. c #D4DCDC",
"'. c #E5DDD3",
"]. c #D7E0DF",
"[. c #E7E0D6",
"{. c #E8E1D7",
"}. c #E9E2D8",
"|. c #D7DFE1",
" X c #DBE4E3",
".X c #DFE8E7",
"XX c #E3EBEA",
"oX c #E7F0EF",
"OX c #E8F0EF",
"+X c #EBF4F3",
"@X c #EBF4F3",
"#X c #EFF8F7",
"$X c #F0F9F8",
/* pixels */
"                                                                                                                        ",
"                                                                                                                        ",
"                          @ # & $ #                                                                                     ",
"              $ #   $ $ - & $ $ & - & & & $                                                                             ",
"            & & @ - - - - - - - - - - - - - - - & - - &                                                                 ",
"          & & & - - ; q g g g i 9 6 ; - - - - - - &                                                                     ",
"        $ & $ & - - - 7 i g G g 8 6 ; - - - - - - & & &                                                                 ",
"    @ @ # $ @ @ - - 7 q g G g 8 - # # $ $ - - - ; & & & $ $ $                                                           ",
"  & $ @ # @ @ # ; ; ; ; 8 S P g 8 ; & & # & & = - - $ @                                                                 ",
"  & & $ - ; ; ; 7 8 q p g g ; - # @ @ # # $ & & & - - -                                                                 ",
"    # & - - ; 8 i g H o.5.#.P i 6 = # # # # # & & # $ & & &                                                             ",
"    & & 7 7 ; q g S S G P G p 6 ; & # @ @ @ @ . # # @ . @ @                                                             ",
"  - 9 7 7 p S S G U o.G q - # @ . . . . . . . @ . . . .                                                                 ",
"@ ; g g b p S P S ; 8 h p ; & $ = 9 = . . . . . . . . .                                                                 ",
"  - p h G p D h i ; # H $.[ P b [ h.w.; . . . @ = 0 0 7 ` p.G._.`.`.W.                                                  ",
"  # ; 8 i 7 h Y h p h w Y k.N.r.r.^.'.] = f = = I Y K.J.9.a.W. X@X@X@X X`.                                              ",
"  @ @ $ ; 6 i ' X.] J.I.l.N.K.U.^.}.}.C.w ' Y h @.h.!.C.i.S.`.+X+X+X+X@X@XXXXX_.                                        ",
"        @ # @ D k.f.J.{.[.{.}.}.}.}.{.K.H h.V.h.q.'.N.p.a.x.W.XX XoX+X+X@X@X@X@XXX).R.                                  ",
"        @   . $ s.B.f.N.U.'.[.'.}.'.'.j.r.I.^.^.L.Z.y.x.y.v.R.W.`.+X@X XOX@X@X@X+XXX).~.                                ",
"                0 [ w.0.V.K.I.!.'.{.K.f.J.'.}.}.L.t.a.p.z.x.v.H._.@X@X_._.@X@X@XXX~.XX`._.~.                            ",
"                  @   +.K.r.C.'.{.C.=.f.B.'.'.'.M.y.v.n.n.p.p.x.P.@X@X_.S.@X+XOX@X`.W.OX`._.).                          ",
"                      %.J.] N.!.U.S.9.@.f.J.^.^.a.y.n.z.n.p.x.v.A.OX@X`.p.XXXXXX@X+X_.XXOX~. X).                        ",
"                      %.0.  M.~. XT.p.9.l.C.V.L.p.u.n.p.p.x.x.n.v.`.@XQ.u. X`.XX@X@X@XOXOXW.Q.XX).                      ",
"              e.V.C.V.0.l.s. XR.S.x.a.i.r.J.^.Z.x.c.m.x.,.a.n.z.p.F.XXS.p.).W.+X@X@X@X+X@XR.p.]. X(.                    ",
"            ] j.V.C.l.w.Y.M. Xx.y.i.z.c.u.u.Z.s.c.n.n.n.i...i.v.9.u.W.v.x.S.`.@X@X@X@X@X@X X8.W. X XP.                  ",
"            s.V.C.V.Z.&.!.s.u.b.{ ,.,.t.t. . .<.i.c.n.n.n.y.} 8.i...u.x.v.F.+X+X@X@X@XoXXX@XQ.m.W. X].D.                ",
"          +.w.C.l.V.q.e.{.M.o.t...T ) 3.6.1.;.( ) >.5.z.n.n.p.,.u.8.| | v.XX@X@X+XoX@X@X XXXXXn.F.W. X XA.              ",
"          [ *.&.s.u. .5.b.#.E W Q :.6.6.2.-.! B k V ^ ) ,.p.n.c.u.u.5.{ m.@X@X@XoX X@X@XXX`.XXn.F.A._. X`.m.            ",
"          E 3.3.6.6.2.:.-.~ ~ R ;.1.:.:.-.~ ! Z n x x m C ) <.5.z.a.i.4.| a.|.@X@X~. X@X@XXX XF.T.D.S. X X`.S.          ",
"        >.2.2.6.2.2.:.-.-.~ ! ~ ;.-.-.-.-.-.~ ! N x n y t k C R Q ..t.t.,.T ..|.@XE.).@X@X@X X).D.T.i.E.|. X XS.        ",
"      ~ :.;.1.:.;.-.-.~ ~ ~ ! -.-.~ -.~ C N V Z ^ Z m j 5 3 j B C N J _ ..| P A.@XD.R.@X@X@XXX`.F.m.u.v._.`. X`.v.      ",
"      ~ / / / / -.~ -./ -.! C V n M N m k y t k k M V M k 5 4 5 j N N M F K K 4.XXS.S.+X@X@X@XXXQ.y.i.u.W.`.|. XW.      ",
"      / / / ~ ^ ^ Z C Z ^ B M x y y y y z y y t y y z z x m x z y 4 m N n z a J W.R.n.XX@X@X@X@X|.n.t.8.Q.)._.|._.      ",
"    C / V N V N c c k t e 4 j n y y z y y k z u y y y y 5 5 4 4 y t 4 y B B z u P p.n. X@X@X@X@X+X`.4.8.E.(.(._.|.S.    ",
"    V ! x y k j j t e t e 2 2 x y 2 y y z y z z y y y z g y t 2 2 4 4 5 2 5 m z e b a.XX@X@X@X@X+X+XT.t.D.R.E.(._.W.    ",
"      ! M y j j j j y 4 e y 4 y z e 2 y y k y y z y y x z y y e 4 4 2 4 5 < 2 5 j 5 8.+X@X@X@X@X+X+XOXv.x.D.T.R.(.).c.  ",
"        C x y k k y y y t e y t e t 3 1 y j j j a k j k x c z y 4 4 2 1 4 4 < < 3 5 m.#X@X@X@X@X+X+X#XS. .t.b.T.R.(.S.  ",
"          x j j y z y y t t y k t 2 e d 1 y j j j j j j y z c M x 4 4 4 4 4 2 > : >  .XX@X@X@X@X+X+X#Xm.K T  .i.S.E.T.  ",
"            k j z y k k k t e t k e 1 e 2 2 t k j k j j y k y z M N c z j 5 2 2 < % > z.@X@X@X@X+X+X#XA.l J K T ,.T.T.  ",
"              j z y y k y k y 2 e k e 1 e 2 2 t j j j j z y z y y z M V V N n 5 < < + E OX@X@X@X+X+X#XQ.v l J T { z.T.t.",
"                u k k y k k y y 2 3 j 3 1 3 2 1 t j j j j j j j y z y x n B C N 5 2 : v XX#X+X+X+X+X#X).J J L T { <.x.a.",
"                  t y j k y y k t 2 e y d 1 3 3 1 e j j j j j j y y y y y y z n N z < x  X@X+X+X+X+X+X|.K v J L T } ,.8.",
"                      y y y k y j t 2 e e 1 1 3 d 1 3 y j j j j z y y y y y t 4 5 n z 5 ).@X+X+X+X+X+X.XW J L K K _ ....",
"                          t y z j k y 3 e 3 1 , 3 t 3 1 5 j j j y y y y y y y t 4 4 m g P.#X+X+X+X+X+XXX{ v J K T W | W ",
"                              t t y j j e y e 2 , 3 j 5 3 3 t t y y y y t y y y 5 3 3 t A.$X+X+X+X+X+XoX .v J K T _ } K ",
"                                  1 3 e y j j t 3 < 1 5 t t t t y y 5 5 t 5 t t g 5 3 2 b.$X#X#X#X@X@X#X .l J K T _ {   ",
"                                      : 1 1 1 3 3 3 : : , 3 d 5 5 5 5 5 4 5 5 5 3 4 4 2 u.`.E.R.L.L.G.Q._ , J L T W {   ",
"                                        2 3 , , : : , : % % : : < < < 3 3 3 3 3 4 3 4 2 r v X.N.f.f.=.l , O 1 J E { E   ",
"                                          e e 2 > > , > : : % % + % % + % - > < 2 3 1 3 : : _ '.Y.C.0.9 : > + u W W     ",
"                                              e 5 3 1 > , : : : + % + + + + + + : : > < : + G '.{.'.l.i < 1 : a P       ",
"                                                5 j j 4 > : : : + + % + + O O o o + + + O * K '.{.}.K.s > :             ",
"                                              4 5 5 2 : : : : : + % + + O O O o o o o o * X ` }.'.}.!.D +               ",
"                                              > > : , 7 > : : : + + + O o O O + $ # o o o p V.{.{.}./.O.                ",
"                                              r s H O.@.[ Y H D U g g H g G P Y Y I D s p K.}.{.'.'.!.@.                ",
"                                      e.e.e.h.r.g.g.w.g.h.0.=.w.w.w.w.=.e.=.$.$.*.$.w.=.k.{.}.'.'.}.Y.$.                ",
"                                  ] %.+.+.+.0.=.=.=.@.w.f.@.*.q.%.*.*.] =.$.] $.[ @.] =./.'.J.I.{.'./.q.                ",
"                                                                                      j.'.k.=.!.K.I./.0.                ",
"                                                                                      Z.Y.=.B.J.0.l.g.[                 ",
"                                                                                      N.k.w.g.=.0.*.Y                   ",
"                                                                                      &.O.=.@.$.@.O.                    "
};
